<svg width="240" height="240" viewBox="0 0 240 240" fill="none" xmlns="http://www.w3.org/2000/svg">
<path d="M154.597 61.1746H72.1663V83.0092H154.597V61.1746Z" fill="#7ABEE6"/>
<path d="M160.861 81.0552C159.407 79.1866 155.979 73.1948 161.069 63.1245H164.249V55H82.6632C73.2591 55 65.6058 62.6695 65.6058 72.0899V163.044C65.6058 170.733 67.7263 176.595 71.9104 180.462C76.3749 184.594 81.6395 185 83.4391 185C83.7763 185 83.9956 184.988 84.0606 184.98H166.394V81.0552H160.861ZM82.6632 81.0552C77.7398 81.0552 73.7303 77.0336 73.7303 72.0899C73.7303 67.1461 77.7357 63.1245 82.6632 63.1245H152.197C149.252 70.8428 150.056 76.8955 151.685 81.0552H82.6632Z" fill="#494BDD"/>
<path d="M112.224 150.418C99.7612 150.418 89.6218 140.279 89.6218 127.816C89.6218 115.353 99.7612 105.213 112.224 105.213C124.687 105.213 134.827 115.353 134.827 127.816C134.827 140.279 124.691 150.418 112.224 150.418ZM112.224 113.334C104.238 113.334 97.7463 119.829 97.7463 127.812C97.7463 135.794 104.242 142.29 112.224 142.29C120.206 142.29 126.702 135.794 126.702 127.812C126.702 119.829 120.211 113.334 112.224 113.334Z" fill="white"/>
<path d="M122.591 143.666L137.146 158.225L142.892 152.481L128.337 137.922L122.591 143.666Z" fill="white"/>
</svg>
