<svg width="240" height="213" viewBox="0 0 240 213" fill="none" xmlns="http://www.w3.org/2000/svg">
<g clip-path="url(#clip0_46_11)">
<path d="M238.361 149.211C238.348 139.852 238.301 120.701 238.301 113.896C238.301 113.896 238.301 113.801 238.305 113.617C196.099 89.335 132.547 52.6031 103.683 35.8969C79.2415 50.034 30.0521 78.4577 1.59467 94.8054C1.59467 102.743 1.65261 126.263 1.64791 133.241C27.6059 148.276 95.5797 187.563 137.369 211.591C167.035 194.538 215.54 166.507 238.365 153.296V152.936C238.365 152.026 238.363 150.751 238.361 149.211Z" fill="white"/>
<path d="M103.12 36.2195C78.5822 50.4145 30.1876 78.3786 1.90247 94.6284C23.336 107.042 100.838 151.846 136.764 172.451C162.996 157.417 220.44 124.232 238.301 113.893C238.301 113.893 238.301 113.798 238.305 113.614C196.099 89.3319 132.547 52.6 103.683 35.8937L103.12 36.2195Z" fill="#5199D1"/>
<path d="M239.927 149.211C239.918 142.895 239.906 136.578 239.891 130.262C239.88 124.718 239.75 119.158 239.872 113.615C239.872 113.341 239.8 113.073 239.664 112.835C239.528 112.598 239.332 112.401 239.096 112.263C220.46 101.541 201.833 90.803 183.214 80.0497C164.747 69.3898 146.284 58.7232 127.825 48.0497C120.04 43.5488 112.256 39.0463 104.473 34.5422C104.232 34.4037 103.96 34.3307 103.682 34.3307C103.405 34.3307 103.132 34.4037 102.892 34.5422C90.4879 41.7191 78.0808 48.891 65.6706 56.0579C51.1357 64.4538 36.5971 72.843 22.0549 81.2258C14.9741 85.3055 7.89094 89.3815 0.805425 93.4539C0.569967 93.5926 0.374676 93.7903 0.238755 94.0274C0.102834 94.2645 0.0309631 94.5329 0.0302102 94.8062C0.0302102 103.85 0.043783 112.895 0.0709286 121.939C0.0751048 124.173 0.078498 126.406 0.0811082 128.638C-0.036419 130.241 -0.0262071 131.85 0.111647 133.45C0.291747 134.517 1.46083 134.942 2.30417 135.432L4.45129 136.672L9.17462 139.406C17.0928 143.989 25.0141 148.57 32.9385 153.15C42.6806 158.783 52.4238 164.413 62.168 170.04C72.5261 176.022 82.8851 182.002 93.2447 187.978C103.204 193.723 113.165 199.466 123.129 205.205C127.553 207.753 131.915 210.536 136.452 212.873C137.791 213.562 139.047 212.435 140.194 211.777L143.483 209.886C145.79 208.559 148.097 207.231 150.405 205.902C160.683 199.983 170.957 194.058 181.228 188.127C191.54 182.176 201.851 176.221 212.158 170.262C220.598 165.384 229.036 160.503 237.474 155.619C238.367 155.101 239.717 154.627 239.901 153.501C240.024 152.073 240.032 150.638 239.926 149.208C239.926 147.193 236.793 147.189 236.793 149.208C236.793 150.569 236.793 151.931 236.793 153.293L237.569 151.94C225.64 158.845 213.707 165.745 201.772 172.639C187.312 180.991 172.849 189.338 158.384 197.679C151.116 201.868 143.845 206.054 136.573 210.236H138.154C119.13 199.297 100.116 188.339 81.1146 177.362C62.3434 166.527 43.5754 155.683 24.8105 144.83C17.3512 140.518 9.89398 136.205 2.43886 131.889L3.21407 133.241C3.22034 122.816 3.18197 112.39 3.16709 101.965C3.16344 99.5781 3.16135 97.1916 3.16083 94.8054L2.38483 96.1577C15.7572 88.476 29.1211 80.779 42.4768 73.0665C56.7486 64.8304 71.019 56.5883 85.2882 48.3402C91.6841 44.6427 98.079 40.9444 104.473 37.2453H102.892C118.34 46.1871 133.792 55.1219 149.248 64.0497C168.601 75.2316 187.959 86.4059 207.321 97.5727C217.383 103.375 227.448 109.173 237.516 114.966L236.74 113.614C236.619 119.157 236.749 124.717 236.76 130.261C236.772 136.577 236.784 142.894 236.796 149.211C236.798 151.226 239.93 151.23 239.927 149.211Z" fill="#211715"/>
<path d="M135.51 172.346C135.51 183.171 135.528 193.996 135.566 204.821C135.57 207.01 135.572 209.2 135.574 211.39C135.574 213.405 138.706 213.409 138.706 211.39C138.706 200.819 138.667 190.248 138.65 179.677C138.645 177.232 138.643 174.787 138.642 172.343C138.642 170.327 135.51 170.324 135.51 172.343V172.346Z" fill="#211715"/>
<path d="M2.67454 96.8781C8.99633 100.541 15.3197 104.201 21.6446 107.859C30.539 113.003 39.4351 118.145 48.3332 123.285C58.4334 129.121 68.5347 134.954 78.637 140.785C88.576 146.521 98.5167 152.253 108.459 157.981C116.869 162.825 125.281 167.663 133.697 172.495L136.286 173.983C138.037 174.988 139.617 172.282 137.866 171.278C129.732 166.615 121.602 161.942 113.477 157.262C103.648 151.602 93.8213 145.938 83.9977 140.27C73.8401 134.408 63.684 128.545 53.5294 122.679C44.4117 117.406 35.2939 112.134 26.1761 106.861C19.4617 102.977 12.7482 99.0918 6.03537 95.2047L4.25551 94.1735C2.50775 93.161 0.929128 95.8672 2.67454 96.8781Z" fill="#211715"/>
<path d="M137.094 184.188C130.077 180.165 123.065 176.134 116.057 172.095C107.508 167.172 98.9609 162.245 90.4164 157.314C81.6029 152.228 72.7913 147.141 63.9815 142.051C56.0279 137.457 48.0752 132.861 40.1237 128.263C34.2947 124.892 28.466 121.52 22.6375 118.148C22.1196 117.847 21.6015 117.547 21.0831 117.247C19.3354 116.235 17.7568 118.94 19.5022 119.952C24.9882 123.13 30.4755 126.305 35.9641 129.478C43.7215 133.967 51.4797 138.452 59.2386 142.931C68.0035 147.995 76.7694 153.057 85.5364 158.117C94.1844 163.107 102.834 168.095 111.485 173.079C118.741 177.261 126.003 181.437 133.271 185.608L135.513 186.894C137.264 187.898 138.844 185.192 137.094 184.189V184.188Z" fill="#211715"/>
<path d="M128.497 191.925C121.701 188.028 114.915 184.113 108.138 180.179C106.391 179.168 104.812 181.873 106.557 182.884C113.337 186.811 120.123 190.726 126.916 194.63C128.668 195.634 130.248 192.929 128.497 191.925Z" fill="#211715"/>
<path d="M195.297 182.593C191.681 184.669 179.954 191.441 174.62 194.514C169.473 191.558 160.345 186.298 153.528 182.364C159.97 178.659 167.055 174.579 174.221 170.442C181.217 174.479 190.403 179.781 195.297 182.593Z" fill="#7ABEE6"/>
<path d="M153.528 183.928H153.536L152.746 183.714C159.295 187.502 165.85 191.28 172.411 195.049C173.013 195.5 173.691 195.839 174.412 196.05C175.195 196.156 175.922 195.571 176.57 195.197L180.274 193.062L188.693 188.207C191.157 186.785 193.622 185.365 196.088 183.946C196.32 183.805 196.513 183.606 196.646 183.37C196.779 183.133 196.85 182.865 196.85 182.593C196.85 182.322 196.779 182.054 196.646 181.817C196.513 181.58 196.32 181.382 196.088 181.241C189.055 177.204 182.03 173.154 175.012 169.091C173.263 168.08 171.684 170.787 173.431 171.795C180.453 175.85 187.479 179.9 194.507 183.946V181.238C187.608 185.2 180.717 189.174 173.834 193.16H175.414C171.969 191.18 168.524 189.197 165.078 187.209C163.147 186.097 161.215 184.984 159.284 183.87L156.408 182.209C155.604 181.745 154.48 180.792 153.529 180.792C151.514 180.792 151.51 183.925 153.529 183.925L153.528 183.928Z" fill="#211715"/>
<path d="M224.573 139.55C214.938 145.13 205.298 150.702 195.655 156.267C182.687 163.754 169.714 171.235 156.737 178.708C150.026 182.571 143.312 186.43 136.597 190.285C134.847 191.287 136.423 193.994 138.177 192.99C150.58 185.89 162.967 178.761 175.338 171.603C187.595 164.537 199.85 157.463 212.1 150.383C216.785 147.675 221.469 144.965 226.153 142.254C227.897 141.244 226.322 138.536 224.572 139.549L224.573 139.55Z" fill="#211715"/>
<path d="M137.726 173.705C151.334 165.905 164.93 158.081 178.511 150.235C193.164 141.786 207.812 133.329 222.455 124.864C228.001 121.659 233.545 118.453 239.089 115.244C240.833 114.235 239.258 111.527 237.508 112.54C225.939 119.237 214.365 125.926 202.787 132.608C187.575 141.393 172.357 150.169 157.135 158.936C150.14 162.962 143.143 166.984 136.144 171C134.395 172.002 135.971 174.709 137.725 173.704L137.726 173.705Z" fill="#211715"/>
<path d="M205.341 91.8047C205.331 84.8184 205.295 70.52 205.295 65.438C205.295 65.438 205.295 65.3667 205.299 65.2297C173.791 47.1022 126.344 19.6799 104.796 7.20602C86.5513 17.763 49.8264 38.982 28.5816 51.1866C28.5816 57.1127 28.6255 74.6717 28.6215 79.8805C48.0011 91.1015 98.7472 120.435 129.948 138.374C152.095 125.643 188.306 104.716 205.346 94.8539V94.5853C205.343 93.9056 205.342 92.9542 205.341 91.8047Z" fill="white"/>
<path d="M103.428 7.99852C84.7683 18.7936 49.3088 39.2812 28.5816 51.1882C28.5816 57.1143 28.6255 74.6733 28.6215 79.8821C37.0495 84.7621 51.4082 93.0678 67.5154 102.373C67.5037 95.222 67.4731 79.424 67.47 73.4134C100.227 54.4903 127.825 38.5326 143.39 29.5221C127.97 20.6134 114.013 12.5425 104.796 7.20529L103.428 7.99852Z" fill="#7ABEE6"/>
<path d="M206.907 91.8047C206.894 82.9563 206.672 74.0789 206.865 65.2297C206.865 64.9562 206.794 64.6874 206.658 64.4501C206.522 64.2129 206.326 64.0154 206.089 63.8774C192.18 55.8747 178.277 47.8615 164.381 39.8379C150.596 31.8811 136.814 23.9202 123.036 15.955C117.22 12.5874 111.404 9.22214 105.586 5.85922C105.346 5.72069 105.073 5.64777 104.796 5.64777C104.518 5.64777 104.246 5.72069 104.005 5.85922C94.732 11.222 85.4563 16.5828 76.1782 21.9414C65.3545 28.1932 54.5281 34.4399 43.6991 40.6813C38.3979 43.7357 33.0953 46.7872 27.7915 49.8358C27.556 49.9746 27.3606 50.1722 27.2245 50.4093C27.0884 50.6464 27.0164 50.9148 27.0155 51.1882C27.0155 58.0205 27.026 64.8523 27.0468 71.6836C27.05 73.3374 27.0523 74.9912 27.0539 76.645C27.0539 77.7593 26.8135 79.2149 27.1118 80.2987C27.4305 81.456 29.6097 82.2641 30.5964 82.8357L34.1984 84.9218C47.3969 92.5591 60.5988 100.19 73.8041 107.816C88.9502 116.563 104.101 125.303 119.256 134.034L124.441 137.019L126.829 138.392C127.629 138.925 128.468 139.398 129.338 139.806C130.372 140.206 131.338 139.379 132.2 138.883L134.806 137.384C136.562 136.374 138.318 135.363 140.073 134.352C147.72 129.948 155.366 125.54 163.009 121.127C177.006 113.049 191 104.962 204.989 96.8671C205.844 96.3723 206.826 95.9862 206.906 94.8547C206.977 93.8485 206.906 92.8125 206.906 91.8008C206.906 89.7861 203.774 89.7821 203.774 91.8008C203.774 92.8172 203.774 93.8352 203.774 94.8547L204.55 93.5024C195.664 98.6454 186.775 103.785 177.884 108.92C167.068 115.17 156.249 121.414 145.427 127.653C140.002 130.779 134.577 133.902 129.151 137.023H130.732C116.547 128.866 102.37 120.696 88.2019 112.514C74.2037 104.432 60.208 96.3443 46.215 88.2513C40.6131 85.0147 35.0122 81.7742 29.4124 78.5298L30.1876 79.8821C30.1923 72.1213 30.1641 64.3606 30.1524 56.599C30.1524 54.7959 30.1508 52.9923 30.1477 51.1882L29.3725 52.5405C39.3688 46.7981 49.3587 41.0438 59.342 35.2775C69.9716 29.1446 80.5983 23.0074 91.2221 16.8657C96.0112 14.0989 100.799 11.3304 105.586 8.55994H104.005C115.535 15.2331 127.068 21.9023 138.603 28.5675C153.049 36.9138 167.497 45.2542 181.949 53.589C189.466 57.9218 196.986 62.2547 204.508 66.5875L203.733 65.2352C203.539 74.0836 203.761 82.9595 203.775 91.8102C203.778 93.8203 206.91 93.8242 206.907 91.8047Z" fill="#211715"/>
<path d="M128.16 109.076C128.16 115.704 128.207 122.331 128.208 128.959C128.208 130.973 131.34 130.977 131.34 128.959C131.34 122.331 131.293 115.704 131.292 109.076C131.292 107.062 128.16 107.058 128.16 109.076Z" fill="#211715"/>
<path d="M130.818 108.109C118.933 101.294 107.06 94.4582 95.2001 87.6014C82.4046 80.2188 69.6125 72.8297 56.8238 65.4341C51.9798 62.6334 47.1367 59.8309 42.2944 57.0266C40.5474 56.0149 38.968 58.7203 40.7134 59.7312C50.8173 65.5837 60.9246 71.4289 71.0353 77.2667C84.3204 84.9406 97.6095 92.6087 110.902 100.271C117.01 103.79 123.122 107.304 129.237 110.813C130.988 111.818 132.568 109.112 130.818 108.109Z" fill="#211715"/>
<path d="M130.412 110.433C139.001 105.511 147.582 100.574 156.155 95.6205C165.369 90.3063 174.582 84.9876 183.792 79.6644C187.319 77.6285 190.845 75.5892 194.37 73.5465C196.115 72.5371 194.539 69.8294 192.79 70.8418C185.487 75.0703 178.182 79.2927 170.874 83.5092C161.31 89.0317 151.743 94.5496 142.172 100.063C137.726 102.621 133.279 105.176 128.831 107.729C127.082 108.731 128.659 111.439 130.412 110.433Z" fill="#211715"/>
<path d="M68.3478 74.7132C79.8095 68.0928 91.2699 61.4706 102.729 54.8465C112.035 49.4696 121.341 44.0888 130.646 38.704C134.626 36.4019 138.606 34.0989 142.585 31.7952C144.329 30.7859 142.754 28.0781 141.004 29.0906C133.31 33.5445 125.613 37.9977 117.915 42.4501C107.56 48.4378 97.2038 54.4239 86.8473 60.4085C80.1548 64.2757 73.4624 68.1424 66.77 72.0085C65.0246 73.0171 66.6 75.7241 68.3501 74.7132H68.3478Z" fill="#211715"/>
<path d="M65.9 73.3992C65.9102 82.2813 65.9478 91.1634 65.9486 100.046C65.9486 102.061 69.0808 102.064 69.0808 100.046C69.0808 91.1634 69.0424 82.2813 69.0322 73.3992C69.0322 71.3845 65.9 71.3805 65.9 73.3992Z" fill="#211715"/>
<path d="M115.331 73.9286C115.245 75.6062 114.819 77.2487 114.078 78.7561C112.523 81.81 109.522 83.8999 106.362 85.2311C103.203 86.5623 102.75 86.2162 99.4809 87.2474C96.9321 88.0524 94.2635 89.2105 93.1712 91.7891C92.7132 93.1104 92.4415 94.489 92.3638 95.8852C92.1289 101.169 92.1712 106.665 92.1054 112.103C92.1094 112.482 91.9924 112.853 91.7713 113.161C91.5503 113.47 91.2367 113.7 90.876 113.818C87.1492 114.904 83.2217 115.113 79.4005 114.429C79.0054 114.298 78.6534 114.062 78.3826 113.746C77.9695 113.356 77.6715 112.86 77.5212 112.312C77.2268 109.844 77.085 107.466 77.0013 105.086C74.2661 105.694 71.1402 106.743 68.2312 106.033C66.2085 105.539 64.3159 103.997 64.0027 101.938L63.7459 100.238C63.294 91.9222 62.843 92.9692 62.3912 84.6556C62.2393 81.8577 62.1171 78.9072 63.3951 76.4132C64.4945 74.5477 66.013 72.9637 67.8302 71.7862C71.3368 69.2228 75.1395 67.0913 79.1562 65.438C79.1562 65.438 110.099 72.8605 115.331 73.9286Z" fill="#5199D1"/>
<path d="M109.004 76.7154C110.805 75.7069 113.125 74.5714 115.365 73.2293C119.081 71.0055 122.614 68.1951 123.345 64.4232C123.595 62.7908 123.587 61.1293 123.321 59.4994C122.607 53.7268 121.241 46.3583 117.644 41.6091C115.451 38.7033 111.99 34.9533 108.615 33.2243C108.615 33.2243 102.76 30.3897 97.0722 30.0185C87.9403 29.4234 83.2671 33.3159 83.2671 33.3159C77.9753 37.3255 74.3057 43.1079 72.9309 49.6033L71.3366 58.7774L70.7611 62.0881L109.004 76.7154Z" fill="white"/>
<path d="M72.3978 121.907C72.2309 121.087 72.2445 120.24 72.4378 119.426C72.631 118.612 72.9992 117.85 73.5168 117.193C74.7008 115.786 76.1464 114.623 77.7734 113.767C79.4178 115.054 86.0987 115.303 90.88 113.822C91.0424 113.772 91.1963 113.698 91.3365 113.602C91.3952 114.159 91.4328 114.504 91.4328 114.504C91.9301 119.046 89.1792 120.872 87.433 121.911C85.3536 123.147 83.1139 124.089 80.7771 124.713C79.3729 125.147 77.8954 125.292 76.4336 125.139C75.7038 125.053 75.0016 124.808 74.376 124.423C73.7503 124.037 73.2164 123.52 72.8112 122.907C72.6276 122.594 72.4884 122.258 72.3978 121.907Z" fill="white"/>
<path d="M58.4103 112.065C58.6223 111.466 58.9241 110.903 59.3053 110.395C60.5925 108.901 62.1599 107.674 63.919 106.782C64.8151 106.165 65.8311 105.743 66.9008 105.544C67.3268 105.758 67.7754 105.923 68.2383 106.036C71.1473 106.746 74.2724 105.698 77.0084 105.09C77.0671 106.805 77.1579 108.519 77.3138 110.266L76.0852 110.469C76.1768 112.426 74.4408 113.954 72.7564 114.956C70.7457 116.15 68.58 117.061 66.3206 117.664C64.963 118.084 63.5341 118.222 62.1211 118.071C61.4157 117.99 60.7368 117.755 60.1321 117.382C59.5275 117.01 59.0119 116.51 58.6217 115.916C58.3077 115.329 58.1262 114.679 58.0896 114.014C58.0531 113.349 58.1625 112.684 58.4103 112.065Z" fill="white"/>
<path d="M89.8667 114.504C90.0252 115.485 89.9202 116.492 89.5625 117.419C89.2048 118.347 88.6072 119.163 87.8308 119.785C85.5787 121.388 83.0419 122.548 80.3558 123.203C78.1837 123.777 73.8667 124.156 73.8245 120.825C73.7869 117.85 76.858 116.127 79.0756 114.814C80.81 113.79 79.2322 111.08 77.4946 112.109C74.8737 113.659 72.2419 115.394 71.1323 118.374C70.5733 119.737 70.5371 121.259 71.0305 122.648C71.5239 124.037 72.5123 125.195 73.8064 125.901C76.8157 127.477 80.3637 126.632 83.387 125.535C85.8581 124.718 88.1679 123.477 90.2128 121.867C91.2443 120.962 92.0378 119.818 92.5235 118.535C93.0091 117.251 93.1721 115.868 92.9981 114.507C92.9874 114.095 92.819 113.703 92.5276 113.411C92.2362 113.12 91.844 112.951 91.432 112.941C91.0176 112.944 90.6209 113.11 90.3278 113.403C90.0347 113.696 89.8688 114.092 89.8659 114.507L89.8667 114.504Z" fill="#211715"/>
<path d="M66.2758 104.063C64.8911 104.438 63.5808 105.047 62.4021 105.864C61.2277 106.539 60.1302 107.339 59.129 108.25C57.2011 110.087 55.9334 112.956 56.7869 115.611C57.689 118.419 60.6348 119.782 63.4224 119.709C66.4285 119.631 69.5098 118.431 72.1557 117.078C74.7594 115.746 77.6754 113.725 77.6535 110.469C77.6402 108.454 74.508 108.45 74.5213 110.469C74.537 112.77 71.1417 114.157 69.4315 114.925C68.1936 115.474 66.9097 115.913 65.5946 116.236C64.2704 116.669 62.8465 116.694 61.5079 116.308C59.2449 115.458 59.3013 112.997 60.5901 111.281C61.4063 110.304 62.3943 109.484 63.5054 108.863C64.5936 108.062 65.8149 107.459 67.1129 107.084C69.087 106.682 68.2515 103.662 66.2805 104.063H66.2758Z" fill="#211715"/>
<path d="M78.7459 63.9299C74.2953 65.7398 70.1002 68.1235 66.2673 71.0204C64.3485 72.3456 62.8004 74.1395 61.7702 76.2316C60.9248 78.429 60.5802 80.7874 60.7617 83.1349C60.8752 86.5137 61.2002 89.8691 61.6058 93.2221C61.9723 96.2533 61.9543 99.3408 62.4985 102.345C62.7399 103.415 63.2401 104.409 63.9551 105.241C64.6702 106.074 65.5784 106.718 66.6001 107.117C69.2311 108.248 72.1291 107.827 74.8346 107.216C76.8 106.771 75.9684 103.751 74.0022 104.196C71.0791 104.857 66.1459 105.37 65.496 101.365C65.0676 98.7214 65.0708 95.9956 64.7482 93.3098C64.4099 90.4908 64.1327 87.6836 63.9753 84.849C63.7539 82.8529 63.8219 80.8353 64.1773 78.8587C64.6998 76.9578 65.8356 75.2827 67.4082 74.0939C71.0825 71.112 75.187 68.7035 79.5822 66.9501C79.9758 66.8287 80.3084 66.5618 80.5121 66.2038C80.7158 65.8457 80.7753 65.4235 80.6784 65.0231C80.5665 64.6235 80.3013 64.2842 79.9407 64.0789C79.58 63.8737 79.1529 63.819 78.7521 63.9268L78.7459 63.9299Z" fill="#211715"/>
<path d="M78.421 79.0317C75.7375 80.8969 75.064 83.8216 75.0155 86.8959C74.9662 90.0139 75.1322 93.1312 75.2293 96.247C75.3569 100.334 75.3389 104.427 75.613 108.509C75.7398 110.4 75.6012 112.711 76.8016 114.277C77.9535 115.781 79.3653 116.096 81.1514 116.284C82.8659 116.452 84.5929 116.446 86.3062 116.266C88.0885 116.159 89.8483 115.814 91.5385 115.238C93.5823 114.442 93.6716 112.483 93.6903 110.588C93.7107 108.434 93.7185 106.281 93.7397 104.129C93.76 102 93.7921 99.8701 93.8626 97.7418C93.8165 95.999 94.0462 94.2598 94.5431 92.5886C95.5884 89.7571 99.2993 88.8253 101.912 88.1949C105.299 87.3774 108.56 86.3156 111.38 84.1795C113.086 82.9048 114.474 81.2535 115.437 79.3541C116.4 77.4548 116.911 75.3587 116.931 73.2294C117.009 71.213 113.877 71.2169 113.799 73.2294C113.791 74.8313 113.42 76.4107 112.714 77.8484C112.007 79.2862 110.984 80.5448 109.72 81.5296C107.479 83.2048 104.896 84.3647 102.155 84.9265C99.3635 85.5467 96.3989 86.336 94.1132 88.137C91.5753 90.1337 90.9489 93.1853 90.7868 96.2595C90.5809 100.141 90.6051 104.039 90.5785 107.927C90.5723 108.878 90.5647 109.828 90.5558 110.778C90.6094 111.22 90.6044 111.668 90.5409 112.109C90.4524 112.36 90.4893 112.266 90.324 112.357C89.6058 112.64 88.8506 112.819 88.0814 112.888C87.2865 113.032 86.4846 113.133 85.679 113.191C84.1718 113.315 82.6564 113.303 81.1514 113.155C80.6582 113.15 80.1706 113.049 79.7161 112.857C78.9871 112.423 79.0067 111.583 78.9331 110.853C78.5744 107.166 78.5173 103.461 78.4437 99.7597C78.3732 96.2431 78.1939 92.7303 78.1469 89.2129C78.1297 87.8895 78.1077 86.5505 78.2095 85.2327C78.2181 85.1238 78.2268 85.0142 78.2377 84.9046C78.2698 84.5913 78.2174 85.0001 78.2463 84.8529C78.3232 84.4357 78.4366 84.0262 78.5854 83.629C78.8602 82.8733 79.3518 82.2155 79.9988 81.7379C81.6432 80.5955 80.0771 77.8791 78.4178 79.0341L78.421 79.0317Z" fill="#211715"/>
<path d="M82.4771 31.9636C76.851 36.1963 72.9289 42.306 71.4228 49.1836C71.0039 51.1498 74.0225 51.99 74.443 50.016C75.7201 43.9191 79.1293 38.4774 84.0581 34.6683C84.4067 34.4496 84.6588 34.1063 84.7632 33.7083C84.8675 33.3102 84.8161 32.8874 84.6195 32.5259C84.4081 32.1692 84.0647 31.9103 83.6637 31.805C83.2627 31.6998 82.8364 31.7568 82.4771 31.9636Z" fill="#211715"/>
<path d="M72.8683 65.4357C71.1268 64.3496 70.4025 62.5149 70.1183 60.5675C69.7996 58.3844 70.1731 55.6053 73.3499 54.8113C74.4911 54.584 75.676 54.8053 76.6583 55.4292C77.6924 56.0309 78.5304 56.919 79.071 57.9864C79.6117 59.0537 79.8319 60.2548 79.7051 61.4445C79.4905 64.0325 77.0498 66.4059 74.4798 66.0308C73.907 65.947 73.3581 65.7443 72.8683 65.4357Z" fill="white"/>
<path d="M73.6585 64.0834C73.2989 63.8541 72.9812 63.5652 72.7188 63.2291C72.859 63.4045 72.6562 63.1343 72.6264 63.0905C72.5523 62.9783 72.4818 62.8639 72.415 62.7475C72.3617 62.6536 72.3108 62.5588 72.2623 62.4625C72.2623 62.4625 72.0689 62.0216 72.1566 62.2425C71.9776 61.779 71.8396 61.3009 71.7439 60.8134C71.7157 60.6764 71.6907 60.5393 71.6656 60.4007C71.6476 60.2942 71.6061 59.916 71.6515 60.3357C71.6304 60.1376 71.61 59.9442 71.5998 59.7414C71.5848 59.3758 71.5929 59.0097 71.6241 58.6451C71.646 58.3515 71.6241 58.6451 71.6163 58.6976C71.6366 58.5982 71.6523 58.4972 71.675 58.3977C71.7236 58.1777 71.794 57.9686 71.8637 57.7548C71.7502 58.1072 71.9311 57.6241 71.9898 57.5199C72.0485 57.4158 72.3664 57.0211 72.1347 57.2779C72.2629 57.1342 72.3982 56.997 72.5403 56.8668C72.7219 56.7032 72.2349 57.0423 72.5966 56.8253C72.718 56.7533 72.8316 56.6742 72.96 56.6069C73.0469 56.5607 73.1354 56.5153 73.2254 56.4761C73.0007 56.574 73.2474 56.4761 73.2849 56.462C73.5179 56.3857 73.755 56.323 73.9952 56.2741C73.6451 56.3336 74.14 56.2835 74.2692 56.2858C74.3984 56.2882 74.5276 56.2952 74.6561 56.3093C74.7665 56.3203 74.7618 56.3203 74.6427 56.3093C74.7257 56.3234 74.808 56.3414 74.8886 56.3618C75.3456 56.4696 75.7733 56.6765 76.1415 56.9679C76.1595 56.9804 76.3764 57.1448 76.2198 57.0188C76.3044 57.0838 76.3858 57.1534 76.4665 57.2239C76.6821 57.411 76.886 57.611 77.0772 57.8229C77.5796 58.3826 77.9221 59.0672 78.0686 59.8048C78.0631 59.779 78.1563 60.2653 78.1218 60.0468C78.0874 59.8283 78.1484 60.3303 78.1461 60.3021C78.1636 60.5431 78.1685 60.7849 78.161 61.0264C78.161 61.1658 78.15 61.3044 78.1383 61.443C78.1437 61.3748 78.1954 61.1767 78.1304 61.4993C78.0767 61.759 78.0066 62.0151 77.9206 62.2659C77.764 62.7358 77.9879 62.1485 77.8595 62.4061C77.789 62.5502 77.7131 62.6904 77.6308 62.8282C77.5357 63.0195 77.4104 63.1943 77.2597 63.3458C77.0834 63.5426 76.8926 63.7258 76.6888 63.8939C76.858 63.7553 76.6567 63.915 76.6285 63.9331C76.497 64.0176 76.367 64.1038 76.2292 64.1789C75.8825 64.3673 75.4986 64.4769 75.1047 64.5C74.5902 64.5165 74.0836 64.3695 73.6577 64.0803C73.299 63.8706 72.8718 63.812 72.4699 63.9174C72.0681 64.0228 71.7245 64.2834 71.5149 64.6421C71.3052 65.0008 71.2466 65.428 71.352 65.8299C71.4574 66.2317 71.718 66.5753 72.0767 66.7849C74.974 68.5076 78.3411 67.3377 80.1624 64.6762C80.9151 63.4801 81.3118 62.0945 81.3064 60.6813C81.301 59.2681 80.8936 57.8857 80.1319 56.6954C78.5807 54.3102 75.6685 52.5366 72.7713 53.3416C71.5529 53.6787 70.4764 54.4008 69.7023 55.4001C68.9282 56.3995 68.4981 57.6224 68.4763 58.8863C68.2828 61.8893 69.5052 65.1202 72.0783 66.7849C72.4369 66.9946 72.8642 67.0531 73.266 66.9478C73.465 66.8956 73.6518 66.8048 73.8156 66.6804C73.9795 66.5561 74.1173 66.4007 74.2211 66.2231C74.3249 66.0455 74.3927 65.8492 74.4206 65.6454C74.4486 65.4416 74.4361 65.2343 74.3839 65.0353C74.3318 64.8363 74.2409 64.6496 74.1166 64.4857C73.9922 64.3218 73.8368 64.1841 73.6592 64.0803L73.6585 64.0834Z" fill="#211715"/>
<path d="M82.9406 44.7711V62.2283C82.9406 64.2431 86.0728 64.247 86.0728 62.2283V44.7711C86.0728 42.7563 82.9406 42.7524 82.9406 44.7711Z" fill="#211715"/>
<path d="M83.9625 65.1976C79.146 66.0136 74.23 67.8929 67.127 69.0714C71.505 71.1817 79.7387 75.2355 87.6123 79.1726C94.4537 76.3874 96.4012 75.9019 100.683 74.2598C93.5196 70.5646 83.9766 65.1953 83.9625 65.1976Z" fill="white"/>
<path d="M83.5468 63.6871C77.8681 64.6707 72.404 66.6016 66.7113 67.5617C65.4083 67.7809 65.1679 69.8599 66.3378 70.4237C70.9664 72.6569 75.5777 74.9333 80.1773 77.2166C81.5591 77.9026 82.9402 78.5896 84.3204 79.2776C85.044 79.6386 85.7636 80.0074 86.4902 80.3605C86.8611 80.5621 87.2774 80.6653 87.6994 80.6603C88.1214 80.6554 88.5352 80.5425 88.9012 80.3324C91.0614 79.4616 93.2362 78.6292 95.4256 77.8352C97.319 77.154 99.2194 76.4915 101.1 75.7727C102.258 75.3295 102.774 73.5801 101.474 72.9099C97.7638 70.9922 94.092 69.0009 90.4329 66.99C88.5473 65.9533 86.6931 64.7795 84.7542 63.8453C82.9462 62.9738 81.3558 65.6737 83.1733 66.55C85.1121 67.4841 86.9663 68.6579 88.8527 69.6947C92.5119 71.7055 96.1836 73.6968 99.8936 75.6145L100.268 72.7525C95.9181 74.4157 91.515 75.9105 87.1981 77.6653L88.4048 77.8219C81.5923 74.4157 74.7798 71.0266 67.9195 67.7206L67.5452 70.5834C73.238 69.6234 78.7013 67.6932 84.3807 66.7089C84.7799 66.5962 85.1186 66.331 85.3237 65.9705C85.5289 65.6101 85.5839 65.1833 85.477 64.7826C85.3589 64.3862 85.0921 64.0507 84.7323 63.8465C84.3725 63.6423 83.9477 63.5852 83.5468 63.6871Z" fill="#211715"/>
<path d="M96.5735 72.4502C97.0355 68.708 100.952 65.5868 105.982 67.7519C106.741 70.087 108.061 73.6169 108.872 76.5675C107.766 77.4617 106.81 78.2385 106.81 78.2385C105.192 80.1914 101.619 79.8398 99.6751 78.6574C98.621 78.0251 97.7693 77.1052 97.2199 76.0057C96.6705 74.9062 96.4462 73.6727 96.5735 72.4502Z" fill="white"/>
<path d="M105.44 65.8859C103.342 65.217 101.066 65.3871 99.0902 66.3604C97.3972 67.2603 96.0963 68.7539 95.4373 70.5544C93.8869 74.6263 96.3394 79.2118 100.328 80.6729C102.769 81.5664 106.107 81.4364 107.917 79.3418C108.202 79.0434 108.361 78.6469 108.361 78.2345C108.361 77.8222 108.202 77.4257 107.917 77.1273C107.622 76.8371 107.224 76.6745 106.81 76.6745C106.396 76.6745 105.999 76.8371 105.703 77.1273C105.625 77.2142 105.546 77.2933 105.468 77.3787C105.416 77.4366 105.179 77.6261 105.423 77.4413C105.257 77.5598 105.083 77.6658 104.902 77.7585C104.824 77.8 104.55 77.8884 104.835 77.7921C104.747 77.8219 104.661 77.8532 104.572 77.8798C104.346 77.9476 104.115 77.9999 103.882 78.0364C104.196 77.9863 103.882 78.0364 103.799 78.0364C103.677 78.0411 103.557 78.0505 103.435 78.0529C103.215 78.0529 102.997 78.0419 102.778 78.0325C102.699 78.0325 102.378 77.9926 102.684 78.0325C102.587 78.0192 102.491 78.0028 102.395 77.9848C102.136 77.9377 101.878 77.8768 101.625 77.8023C101.424 77.7436 101.226 77.6739 101.03 77.6011C101.332 77.713 100.823 77.5016 100.739 77.4562C100.559 77.358 100.386 77.2492 100.219 77.1304C99.838 76.8658 100.345 77.2401 100.136 77.0662C100.028 76.977 99.9218 76.8861 99.8184 76.7922C99.6681 76.6549 99.5232 76.5124 99.3838 76.3646C99.3243 76.3004 99.2656 76.2354 99.2077 76.1689C99.2077 76.1689 98.9391 75.8408 99.0855 76.0287C99.2319 76.2166 98.9845 75.8846 98.9829 75.8823C98.9359 75.8142 98.8897 75.7452 98.8459 75.6755C98.7262 75.4881 98.6167 75.2944 98.5178 75.0953C98.4739 75.0068 98.4324 74.9176 98.3917 74.8275C98.4129 74.8753 98.5045 75.1407 98.4168 74.8768C98.3573 74.6944 98.2915 74.5159 98.2414 74.3287C98.2022 74.1823 98.1709 74.0351 98.1404 73.8871C98.1349 73.8589 98.0816 73.4956 98.1161 73.7641C98.1506 74.0327 98.1083 73.6365 98.1051 73.5856C98.0902 73.2381 98.0973 72.89 98.1263 72.5434C98.1059 72.895 98.1177 72.5966 98.1521 72.422C98.1936 72.2106 98.2458 72.0016 98.3087 71.7956C98.3518 71.6577 98.4058 71.5246 98.4512 71.3876C98.5609 71.0548 98.3228 71.5974 98.4418 71.4134C98.4888 71.3398 98.5201 71.2482 98.5601 71.1699C98.6342 71.0258 98.7141 70.8846 98.7997 70.7463C98.8553 70.6562 99.2296 70.148 98.9563 70.4863C99.1597 70.2302 99.3819 69.9897 99.6211 69.7667C99.6806 69.7127 100.056 69.4041 99.8826 69.5365C99.6783 69.6931 99.9727 69.4762 99.9915 69.4636C100.085 69.4034 100.176 69.3407 100.272 69.2828C100.428 69.1865 100.596 69.0964 100.764 69.015C100.783 69.0056 101.124 68.8584 100.887 68.9547C100.664 69.0471 101.03 68.9053 101.075 68.8905C101.278 68.8204 101.484 68.7614 101.692 68.7135C101.83 68.6814 102.374 68.6117 101.986 68.6477C102.449 68.6105 102.915 68.6058 103.379 68.6336C103.446 68.6336 103.686 68.6704 103.361 68.625C103.497 68.6438 103.633 68.6681 103.767 68.6947C104.048 68.7503 104.325 68.8239 104.6 68.9061C104.798 68.9608 105.005 68.9758 105.209 68.9504C105.413 68.925 105.611 68.8597 105.789 68.7581C105.968 68.6565 106.125 68.5207 106.252 68.3584C106.378 68.1961 106.471 68.0105 106.526 67.8122C106.581 67.6139 106.596 67.4068 106.57 67.2026C106.545 66.9985 106.48 66.8014 106.378 66.6225C106.276 66.4436 106.141 66.2865 105.978 66.1601C105.816 66.0337 105.63 65.9406 105.432 65.8859H105.44Z" fill="#211715"/>
<path d="M110.235 54.9014C110.176 54.4832 110.212 54.7189 110.235 54.9633C110.253 55.1684 110.269 55.3728 110.284 55.5779C110.325 56.1644 110.357 56.7525 110.384 57.339C110.443 58.624 110.486 59.9137 110.455 61.201C110.45 61.4523 110.442 61.7045 110.425 61.9559C110.415 62.1023 110.406 62.6606 110.408 62.2409C110.408 62.6551 110.266 62.2409 110.466 62.2072C110.246 62.2479 109.824 62.6982 109.595 62.883C108.02 64.1546 106.49 65.4796 104.912 66.7465C104.712 66.9397 104.569 67.1837 104.498 67.4523C104.428 67.7209 104.431 68.0038 104.51 68.2703C105.488 71.2373 106.594 74.162 107.419 77.1783C107.486 77.4076 107.604 77.6189 107.764 77.7962C107.924 77.9736 108.122 78.1125 108.344 78.2025C108.565 78.2925 108.804 78.3313 109.042 78.3159C109.28 78.3006 109.512 78.2316 109.72 78.114C116.214 74.4814 125.289 70.78 125.096 61.9676C124.927 58.0912 124.318 54.2465 123.281 50.5077C122.467 46.9438 120.955 43.5764 118.833 40.5998C116.265 37.2327 113.202 33.8719 109.41 31.872C107.628 30.9324 106.043 33.6347 107.829 34.5767C110.855 36.1725 113.323 38.7432 115.473 41.3617C117.485 43.8643 118.97 46.7471 119.841 49.8374C120.768 53.0598 121.418 56.3557 121.782 59.6889C122.006 61.5534 122.183 63.5634 121.452 65.3441C120.815 66.7249 119.881 67.9476 118.716 68.9242C115.638 71.715 111.729 73.4016 108.139 75.4094L110.44 76.349C109.614 73.3327 108.508 70.4073 107.53 67.4403L107.127 68.9641C108.814 67.6094 110.445 66.1851 112.138 64.8375C113.313 63.9049 113.52 62.9942 113.577 61.5573C113.695 59.0575 113.588 56.5522 113.259 54.0714C113.147 53.6719 112.882 53.3327 112.521 53.1275C112.161 52.9223 111.734 52.8675 111.333 52.9751C110.938 53.0943 110.604 53.3609 110.4 53.7196C110.196 54.0783 110.138 54.5017 110.237 54.9022L110.235 54.9014Z" fill="#211715"/>
<path d="M110.023 48.0701C110.114 48.2001 110.158 48.358 110.145 48.5164C110.083 48.7717 109.787 48.8743 109.532 48.9252C107.042 49.7102 104.497 50.3049 101.917 50.7042C101.831 50.7189 101.744 50.7156 101.659 50.6946C101.575 50.6736 101.496 50.6353 101.428 50.5821C101.34 50.4683 101.296 50.3268 101.305 50.1835C101.111 47.8258 100.753 43.7962 100.475 41.9302C95.6114 42.4808 90.7006 41.4413 86.4777 38.9672C85.2483 38.1841 83.5867 36.6047 83.2672 35.1827C83.1656 34.5359 83.2547 33.8736 83.5236 33.2766C83.7926 32.6797 84.2298 32.1742 84.7816 31.8219C85.8074 31.0944 89.6905 31.2142 88.8253 31.2988C89.8655 32.3601 91.055 33.2641 92.356 33.9823C95.0282 35.4026 98.0494 36.0332 101.067 35.8004C104.084 35.5676 106.972 34.481 109.395 32.6676L110.165 32.9025C110.802 33.1645 111.36 33.5883 111.784 34.132C112.207 34.6757 112.482 35.3204 112.58 36.0026C112.592 36.3494 112.518 36.6939 112.364 37.0051C112.21 37.3163 111.982 37.5845 111.699 37.7856C109.915 39.0586 107.956 40.0657 105.882 40.7752C107.524 43.031 108.906 45.465 110.002 48.0309L110.023 48.0701Z" fill="white"/>
<path d="M83.8458 18.0223C83.6286 22.603 85.1644 27.0944 88.1408 30.5831C90.8391 33.6782 94.6512 35.5817 98.7466 35.8788C102.842 36.176 106.889 34.8427 110.006 32.1695C112.159 32.2822 114.28 31.6181 115.984 30.2981C116.748 29.7035 117.348 28.9243 117.728 28.0339C118.107 27.1435 118.254 26.1711 118.154 25.2083C118.032 24.5403 117.748 23.9125 117.327 23.3801C116.906 22.8476 116.36 22.4267 115.738 22.1544C116.914 19.0979 117.047 15.7388 116.117 12.599C115.187 9.45918 113.246 6.71441 110.595 4.79114C103.626 -0.158491 93.7803 0.522759 88.0555 7.03535C85.4326 10.1058 83.9461 13.9853 83.8458 18.0223Z" fill="white"/>
<path d="M86.1144 9.77447C85.0966 11.5976 84.4075 13.5855 84.0785 15.6473C88.2185 16.0143 92.3895 15.5115 96.3238 14.1713C96.4341 14.1341 96.5509 14.1201 96.6669 14.1301C96.7829 14.1401 96.8956 14.1738 96.998 14.2292C97.4921 14.5072 96.8954 15.5862 96.6166 16.0796C98.3706 16.5737 102.666 15.7663 104.564 14.7233C105.619 17.2886 106.696 18.6252 108.765 19.5939L114.318 21.806C114.809 21.833 115.29 21.9512 115.738 22.1544C116.911 19.0969 117.043 15.7376 116.112 12.5977C115.181 9.45774 113.24 6.71281 110.59 4.78882C103.621 -0.160809 93.7749 0.520438 88.0501 7.03303C87.3111 7.87691 86.6624 8.79572 86.1144 9.77447Z" fill="white"/>
<path d="M117.49 21.9117C118.512 18.7087 118.534 15.2707 117.554 12.0548C116.574 8.83892 114.638 5.99757 112.004 3.90865C109.406 1.9208 106.339 0.637721 103.099 0.18376C99.8597 -0.270201 96.5577 0.120345 93.5134 1.31755C87.0924 3.9525 83.066 9.9475 82.3675 16.7655C81.9935 20.1492 82.5218 23.5717 83.8988 26.6852C85.2758 29.7987 87.4524 32.4922 90.2074 34.4921C96.6174 38.9687 105.886 38.181 111.556 32.868C113.03 31.4867 110.812 29.2754 109.341 30.6536C107.241 32.5382 104.628 33.7571 101.834 34.1561C99.0407 34.555 96.1914 34.116 93.6473 32.8947C88.3759 30.2621 85.4324 24.6053 85.4003 18.8304C85.3697 13.2794 88.011 7.87713 92.9042 5.07226C95.2603 3.775 97.9095 3.10317 100.599 3.12085C103.289 3.13853 105.929 3.84515 108.268 5.17327C110.981 6.69744 113.082 9.11529 114.213 12.0149C115.344 14.9145 115.434 18.1165 114.469 21.0754C113.849 22.9985 116.872 23.8215 117.489 21.9085L117.49 21.9117Z" fill="#211715"/>
<path d="M114.32 23.3752C114.689 23.401 114.149 23.307 114.477 23.3924C114.616 23.4292 114.757 23.4582 114.895 23.5028C114.973 23.5286 115.295 23.6813 115.057 23.56C115.186 23.6257 115.315 23.6931 115.438 23.769C115.494 23.8043 115.801 24.0266 115.594 23.8606C115.707 23.9522 115.815 24.0497 115.917 24.1527C116.02 24.2549 116.118 24.3628 116.208 24.4761C116.025 24.2412 116.265 24.581 116.297 24.6327C116.372 24.7571 116.441 24.8857 116.501 25.018C116.376 24.7392 116.528 25.1268 116.546 25.1903C116.588 25.3314 116.62 25.4753 116.642 25.6209C116.598 25.3077 116.637 25.7454 116.642 25.8104C116.642 25.967 116.635 26.1158 116.626 26.2685C116.608 26.6185 116.68 26.1487 116.594 26.4619C116.524 26.7172 116.388 27.2105 116.342 27.3162C116.127 27.781 115.846 28.2127 115.509 28.5981C115.126 29.0293 114.666 29.3848 114.151 29.6458C113.627 29.9576 113.061 30.1911 112.469 30.3388C112.141 30.431 111.808 30.505 111.471 30.5604C111.36 30.5776 111.36 30.5776 111.471 30.5604C111.388 30.5698 111.305 30.5784 111.222 30.5847C111.03 30.6011 110.839 30.6097 110.646 30.6144C110.231 30.6144 109.833 30.7794 109.539 31.0731C109.245 31.3668 109.08 31.7651 109.08 32.1805C109.08 32.5959 109.245 32.9942 109.539 33.2879C109.833 33.5816 110.231 33.7466 110.646 33.7466C114.382 33.655 118.157 31.6324 119.427 27.9677C119.731 27.1325 119.84 26.2389 119.747 25.3549C119.653 24.471 119.359 23.62 118.887 22.867C118.38 22.107 117.705 21.4745 116.914 21.0188C116.122 20.563 115.236 20.2965 114.324 20.2398C113.91 20.2419 113.512 20.4076 113.219 20.7008C112.926 20.9941 112.76 21.3912 112.758 21.8059C112.768 22.2182 112.936 22.6109 113.228 22.9025C113.519 23.1941 113.912 23.3623 114.324 23.372L114.32 23.3752Z" fill="#211715"/>
<path d="M93.7247 23.7189C93.7051 24.0852 93.6042 24.4426 93.4295 24.7652C93.2548 25.0878 93.0106 25.3675 92.7146 25.5841C92.2946 25.8541 91.7862 25.9505 91.2965 25.8527C90.9624 25.7932 90.6471 25.6559 90.3759 25.4518C90.1048 25.2478 89.8856 24.9827 89.7359 24.6782C89.5194 24.1894 89.4634 23.6447 89.576 23.1221C89.6885 22.5996 89.9638 22.1262 90.3623 21.7699C90.7508 21.4467 91.2472 21.2824 91.7519 21.3101C92.2565 21.3379 92.7319 21.5556 93.0826 21.9195C93.3164 22.153 93.4953 22.4357 93.6064 22.7469C93.7174 23.0581 93.7579 23.3902 93.7247 23.7189Z" fill="#211715"/>
<path d="M103.246 25.664C103.226 26.0302 103.124 26.3874 102.95 26.7099C102.775 27.0324 102.531 27.3122 102.236 27.5292C101.815 27.7988 101.307 27.8948 100.817 27.797C100.483 27.7376 100.167 27.6003 99.8964 27.3962C99.6254 27.1922 99.4063 26.9271 99.257 26.6225C99.0405 26.1337 98.9845 25.589 99.097 25.0664C99.2096 24.5439 99.4849 24.0705 99.8834 23.7142C100.272 23.391 100.768 23.2268 101.273 23.2545C101.777 23.2823 102.252 23.4999 102.603 23.8638C102.837 24.0975 103.016 24.3802 103.127 24.6916C103.238 25.0029 103.279 25.3351 103.246 25.664Z" fill="#211715"/>
<path d="M103.056 15.1422C103.559 16.4788 104.269 17.7281 105.16 18.8445C105.939 19.7385 106.9 20.4558 107.979 20.9485C108.347 21.1492 108.778 21.2051 109.185 21.1051C109.482 21.0233 109.749 20.8557 109.951 20.6232C110.153 20.3908 110.282 20.1038 110.322 19.7983C110.362 19.4928 110.311 19.1823 110.175 18.9056C110.04 18.629 109.826 18.3985 109.56 18.2431C109.029 17.9978 108.526 17.6964 108.06 17.3441L108.373 17.5892C107.921 17.2346 107.515 16.8248 107.165 16.3693L107.409 16.6825C106.842 15.902 106.373 15.0546 106.012 14.1595L106.169 14.5338C106.138 14.4594 106.106 14.385 106.076 14.3106C105.954 13.9222 105.699 13.5894 105.356 13.371C105.179 13.267 104.982 13.1991 104.778 13.1711C104.575 13.1431 104.367 13.1555 104.168 13.2076C103.969 13.2598 103.782 13.3506 103.618 13.475C103.455 13.5993 103.317 13.7548 103.213 13.9324C103.105 14.1117 103.035 14.3115 103.008 14.5193C102.981 14.727 102.997 14.9381 103.056 15.1391V15.1422Z" fill="#211715"/>
<path d="M103.776 13.3765C101.988 14.3161 98.9312 15.0483 97.0355 14.5745L97.9712 16.8751C98.5742 15.7977 99.2319 14.2997 98.2249 13.234C97.0613 12.0022 95.406 12.8699 94.0748 13.234C90.9822 14.0408 87.7793 14.3412 84.5905 14.1235C82.5766 14.0123 82.5828 17.1445 84.5905 17.2557C86.7119 17.3816 88.8404 17.3084 90.9481 17.0372C91.941 16.9057 92.9268 16.7365 93.9025 16.5087C94.4084 16.3907 94.9103 16.2602 95.4083 16.1171C95.6876 16.0357 95.9653 15.9498 96.2415 15.8595C96.3527 15.8243 96.4639 15.7875 96.5743 15.7491C96.7935 15.6729 96.7961 15.6729 96.5821 15.7491L95.8915 15.3466L96.0081 15.4523L95.6056 14.7609C95.449 14.3866 95.7419 14.4195 95.5641 14.7335C95.4592 14.9183 95.3692 15.1125 95.265 15.2981C95.1473 15.506 95.0781 15.7378 95.0627 15.9763C95.0473 16.2147 95.0861 16.4535 95.1761 16.6748C95.2661 16.8962 95.4051 17.0942 95.5825 17.2542C95.76 17.4142 95.9713 17.532 96.2008 17.5987C97.7299 17.8886 99.3023 17.862 100.821 17.5204C102.399 17.2838 103.93 16.7994 105.358 16.085C107.141 15.1454 105.561 12.44 103.777 13.3804L103.776 13.3765Z" fill="#211715"/>
<path d="M88.3053 29.6685C86.8254 29.6803 85.0267 29.7147 83.7895 30.6231C83.046 31.1352 82.4582 31.8425 82.0907 32.6672C81.7232 33.4918 81.5903 34.4018 81.7066 35.2971C82.2868 38.8067 86.3109 40.9444 89.2966 42.0783C92.7006 43.3275 96.3321 43.8355 99.9482 43.5682C103.564 43.301 107.082 42.2647 110.265 40.5286C112.025 39.5467 114.259 38.3361 114.146 35.9987C114.05 34.9714 113.664 33.9925 113.033 33.1763C112.402 32.36 111.552 31.7401 110.581 31.3889C108.685 30.6959 107.867 33.7224 109.749 34.4091C110.354 34.6299 111.286 35.7309 110.918 36.3824C110.668 36.8264 109.783 37.1772 109.369 37.4262C108.792 37.7731 108.202 38.098 107.597 38.3932C105.263 39.4782 102.761 40.1556 100.199 40.3963C97.6198 40.665 95.0132 40.4658 92.5048 39.8082C90.0648 39.1818 87.4988 38.192 85.7416 36.3174C84.928 35.449 84.3603 34.449 85.2992 33.4389C85.9945 32.6911 87.3563 32.8125 88.3053 32.8007C90.3193 32.7851 90.324 29.6529 88.3053 29.6685Z" fill="#211715"/>
<path d="M104.663 41.7478C106.065 43.8742 107.267 46.1257 108.255 48.4733C108.327 48.6299 108.392 48.7999 108.476 48.9479C108.862 49.6283 109.812 47.3442 108.997 47.5329C108.646 47.6112 108.302 47.7443 107.955 47.8461C107.224 48.0552 106.485 48.2376 105.743 48.4099C105.012 48.5759 104.28 48.726 103.546 48.8602C103.17 48.9291 102.794 48.9941 102.417 49.0551C102.261 49.0807 102.106 49.1052 101.952 49.1287L101.65 49.1749C101.743 49.1432 101.842 49.1318 101.94 49.1417C102.038 49.1516 102.133 49.1824 102.218 49.2321L102.78 49.7935C102.849 50.2352 102.88 50.3195 102.873 50.0465C102.873 49.9517 102.873 49.857 102.873 49.7622C102.873 49.6158 102.873 49.4701 102.873 49.3237C102.869 48.9661 102.86 48.6088 102.844 48.2517C102.812 47.4765 102.758 46.7026 102.681 45.93C102.556 44.4437 102.323 42.9685 101.984 41.516C101.932 41.314 101.841 41.1243 101.716 40.9579C101.59 40.7916 101.433 40.6519 101.252 40.5472C101.072 40.4425 100.873 40.3748 100.666 40.3481C100.46 40.3214 100.25 40.3362 100.049 40.3916C99.848 40.447 99.6602 40.542 99.4965 40.671C99.3328 40.7999 99.1965 40.9603 99.0955 41.1426C98.9946 41.3249 98.931 41.5255 98.9086 41.7327C98.8861 41.9399 98.9053 42.1494 98.9649 42.3491C99.0609 42.7375 99.1452 43.129 99.2178 43.5237C99.2538 43.714 99.2867 43.9058 99.318 44.0977C99.3376 44.2214 99.3572 44.3451 99.376 44.4696C99.3838 44.5244 99.4418 44.9355 99.4237 44.7961C99.3995 44.6153 99.441 44.9394 99.4457 44.977C99.4621 45.1086 99.477 45.2401 99.4919 45.3686C99.5161 45.5815 99.5381 45.7953 99.5584 46.0083C99.6075 46.5173 99.6472 47.027 99.6775 47.5376C99.7323 48.4624 99.6657 49.4091 99.7503 50.3284C99.7648 50.7478 99.9101 51.1521 100.166 51.4849C100.421 51.8176 100.775 52.0621 101.176 52.1842C101.814 52.2959 102.468 52.267 103.093 52.0996C105.157 51.7828 107.197 51.3297 109.201 50.7434C109.678 50.6395 110.139 50.4745 110.574 50.2524C110.941 50.0293 111.226 49.6935 111.387 49.295C111.548 48.8966 111.576 48.4567 111.467 48.0411C111.289 47.5414 111.072 47.0562 110.819 46.5901C110.609 46.1312 110.401 45.67 110.192 45.2104C109.411 43.4439 108.465 41.7554 107.365 40.1676C107.149 39.8179 106.807 39.5648 106.409 39.4607C106.011 39.3566 105.589 39.4095 105.229 39.6085C104.874 39.8214 104.617 40.1648 104.512 40.5652C104.407 40.9655 104.462 41.3911 104.667 41.7509L104.663 41.7478Z" fill="#211715"/>
</g>
<defs>
<clipPath id="clip0_46_11">
<rect width="240" height="213" fill="white"/>
</clipPath>
</defs>
</svg>
